<mxfile host="app.diagrams.net" modified="2022-07-25T09:20:13.263Z" agent="5.0 (Windows NT 10.0; WOW64) AppleWebKit/537.36 (KHTML, like Gecko) Chrome/86.0.4240.198 Safari/537.36" etag="FwJyVjMkAEGTgq4i0HKg" version="20.1.1" type="github">
  <diagram id="6UHvOgVMTDahgQahtkfm" name="第 1 页">
    <mxGraphModel dx="1058" dy="532" grid="1" gridSize="10" guides="1" tooltips="1" connect="1" arrows="1" fold="1" page="1" pageScale="1" pageWidth="827" pageHeight="1169" math="0" shadow="0">
      <root>
        <mxCell id="0" />
        <mxCell id="1" parent="0" />
        <mxCell id="0T_2IBzBKvD0dFZH6Lcd-1" value="play" style="rounded=1;whiteSpace=wrap;html=1;" vertex="1" parent="1">
          <mxGeometry x="240" y="200" width="120" height="40" as="geometry" />
        </mxCell>
        <mxCell id="0T_2IBzBKvD0dFZH6Lcd-2" value="timer" style="whiteSpace=wrap;html=1;rounded=1;" vertex="1" parent="1">
          <mxGeometry x="480" y="320" width="120" height="40" as="geometry" />
        </mxCell>
        <mxCell id="0T_2IBzBKvD0dFZH6Lcd-4" value="progressbar" style="whiteSpace=wrap;html=1;rounded=1;" vertex="1" parent="1">
          <mxGeometry x="480" y="80" width="120" height="40" as="geometry" />
        </mxCell>
        <mxCell id="0T_2IBzBKvD0dFZH6Lcd-7" value="lyric&lt;br&gt;" style="whiteSpace=wrap;html=1;rounded=1;" vertex="1" parent="1">
          <mxGeometry x="480" y="200" width="120" height="40" as="geometry" />
        </mxCell>
        <mxCell id="0T_2IBzBKvD0dFZH6Lcd-9" value="pause" style="whiteSpace=wrap;html=1;rounded=1;" vertex="1" parent="1">
          <mxGeometry x="240" y="260" width="120" height="40" as="geometry" />
        </mxCell>
        <mxCell id="0T_2IBzBKvD0dFZH6Lcd-11" value="prev" style="whiteSpace=wrap;html=1;rounded=1;" vertex="1" parent="1">
          <mxGeometry x="240" y="140" width="120" height="40" as="geometry" />
        </mxCell>
        <mxCell id="0T_2IBzBKvD0dFZH6Lcd-13" value="next" style="rounded=1;whiteSpace=wrap;html=1;" vertex="1" parent="1">
          <mxGeometry x="240" y="80" width="120" height="40" as="geometry" />
        </mxCell>
        <mxCell id="0T_2IBzBKvD0dFZH6Lcd-14" value="list dbclick" style="rounded=1;whiteSpace=wrap;html=1;" vertex="1" parent="1">
          <mxGeometry x="240" y="320" width="120" height="40" as="geometry" />
        </mxCell>
      </root>
    </mxGraphModel>
  </diagram>
</mxfile>
